<svg width="3" height="11" viewBox="0 0 3 11" fill="none" xmlns="http://www.w3.org/2000/svg">
<path fill-rule="evenodd" clip-rule="evenodd" d="M1.125 10.5C0.50368 10.5 0 9.99632 0 9.375C0 8.75368 0.50368 8.25 1.125 8.25C1.74632 8.25 2.25 8.75368 2.25 9.375C2.25 9.99632 1.74632 10.5 1.125 10.5ZM1.125 6.375C0.50368 6.375 0 5.87132 0 5.25C0 4.62868 0.50368 4.125 1.125 4.125C1.74632 4.125 2.25 4.62868 2.25 5.25C2.25 5.87132 1.74632 6.375 1.125 6.375ZM0 1.125C0 1.74632 0.50368 2.25 1.125 2.25C1.74632 2.25 2.25 1.74632 2.25 1.125C2.25 0.503679 1.74632 0 1.125 0C0.50368 0 0 0.503679 0 1.125Z" fill="white" fill-opacity="0.25"/>
</svg>
